<svg id="图层_1" data-name="图层 1" xmlns="http://www.w3.org/2000/svg" xmlns:xlink="http://www.w3.org/1999/xlink" viewBox="0 0 992.13 208"><defs><style>.cls-1{fill:#007ace;}.cls-2{fill:url(#未命名的渐变_4);}</style><linearGradient id="未命名的渐变_4" x1="-443.57" y1="400.25" x2="-444.53" y2="400.25" gradientTransform="matrix(346.39, 0, 0, -126.27, 154590.18, 50646.13)" gradientUnits="userSpaceOnUse"><stop offset="0" stop-color="#fdbb33"/><stop offset="1" stop-color="#fc7d16"/></linearGradient></defs><title>exlcode-logo-pack-vector</title><g id="Page-1"><g id="exlcode-logo-pack-vector-color-01"><path id="Shape" class="cls-1" d="M203,44c-.2,1.8-.1,3.9-.2,5.7-.2,5.1-.5,10-.9,14.8-.5,6.6-1.2,12.9-1.9,19.3-.7,5.3-1.4,10.6-2.3,15.8-.5,3.1-1.1,6.1-1.6,9.1a289.06,289.06,0,0,1-7,29.2,190.33,190.33,0,0,1-6.8,19.3c-5.1,12.3-11.1,23.6-19.1,33.3a54.39,54.39,0,0,1-13.8,12.4,31.56,31.56,0,0,1-21,4.5c-14.1-2.3-21.9-14.1-24.5-27.9-3-15.6,0-33.2,3.3-46.7a169.89,169.89,0,0,1,5.9-19.6c3.5-9.5,7.3-18.6,11.5-27.4,1.3-2.7,2.7-5.5,4-8.3,2.6-5,5.2-10,8-14.9,3.2-5.5,6.3-11,9.6-16.4,2.5-4.1,5.1-8.1,7.6-12.1l3.3-4.8c6.4-8.5,12.2-17.2,20.5-23.8,2.7-2.1,6.1-4.5,9.8-5,4.7-.7,7.9,1.8,9.9,4.7C203.42,14.16,202.92,29.46,203,44Zm-42.4-12.4c-1.1,1.8-2.1,3.8-3.2,5.7-1.4,2.7-2.8,5.4-4.1,8.2-2.3,4.6-4.4,9.4-6.4,14.2-3.7,9-7.2,18.2-10.1,27.8h-.1c-1.2,4-2.5,7.9-3.5,12.1h-.1c-1.1,4.3-2.2,8.5-3.3,12.8-1.4,6-2.7,12-3.7,18.3-2,12.8-4.4,29.4-1.8,43.5.8,4.3,2.1,8.6,4.9,10.9a5.8,5.8,0,0,0,3.8,1.5c2.7,0,5.1-1.5,6.9-2.8,5.7-3.9,10-9.5,13.9-15a175.16,175.16,0,0,0,14.3-24.4c.1,0,.1-.1.1-.2,2.8-5.4,5.4-11.1,7.8-16.9,1.8-4,3.4-8.3,5.1-12.5,1.4-4,2.9-7.9,4.2-11.9,3-9,5.8-18.1,8-27.8,1.3-5,2.4-10.2,3.4-15.5.5-3.2,1.1-6.3,1.5-9.5.3-2,.6-4.1.8-6.3,1.2-10.8,1.7-24.8-1.7-33.8-1.3-3.6-3.5-7.5-8.1-7.5-3.9,0-7.3,2.6-9.7,4.7-6.7,5.6-11.4,12.4-16.1,19.9C162.42,28.56,161.42,30.06,160.62,31.56Z"/><path id="Shape-2" data-name="Shape" class="cls-1" d="M157.12,29.26l-3.3,4.8c-9.9-8.4-20.5-17-33.4-23.2a57,57,0,0,0-6.8-2.6,22.86,22.86,0,0,0-8.2-1.2c-7.4.6-8.3,8-6.8,15.4,2.3,11.8,8,20.7,12.8,29.8v.1c-1.5.3-2.8.8-4.2,1.1-3.7-8.2-7.7-16.6-10.1-26.3-1.2-4.8-2.2-11.2-.5-15.9s5.4-6.9,11.7-6.4a42.14,42.14,0,0,1,14.2,4c12.8,5.6,23.7,12.9,34.6,20.2Z"/><path id="Shape-3" data-name="Shape" class="cls-1" d="M160.62,31.56c5.7,4.1,11.3,8.2,16.8,12.4-4.1.2-8.2.3-12.2.6-2.6-2.5-5.2-5-7.9-7.3C158.52,35.36,159.52,33.36,160.62,31.56Z"/><path id="Shape-4" data-name="Shape" class="cls-1" d="M198.92,43.86c-.2,2.2-.5,4.2-.8,6.3-3.9.3-7.5.8-11.2,1.3-4.4.5-8.6,1.3-12.8,2-9.4,1.8-18.5,3.9-27.4,6.1,2-4.8,4.1-9.6,6.4-14.2,4-.3,7.9-.7,12-.8,3.9-.3,8.1-.4,12.2-.6C184.42,43.86,191.82,43.66,198.92,43.86Z"/><path id="Shape-5" data-name="Shape" class="cls-1" d="M203,44c6.3.1,12.3.4,18.2.9,11.7,1,22.9,2.3,31.8,6.3,4.1,1.9,8.8,4.8,9.3,9.8s-2.5,8.7-4.9,11.5c-7.8,8.9-18.5,14.2-28.8,20.4-5.4,2.8-10.8,5.7-16.3,8.3-5.3,2.6-10.7,5-16.2,7.4.6-3,1.1-6.1,1.6-9.1q5.7-1.65,11.1-3.6a175.39,175.39,0,0,0,17.1-6.6,117.58,117.58,0,0,0,21.6-11.6,41.39,41.39,0,0,0,9-7.7c2.2-2.6,5.4-7.3,2.5-11.7-2.1-3.1-6.2-5.1-10.3-6.3-12.5-3.9-30.7-3.6-45.8-2.5C203,47.86,202.92,45.76,203,44Z"/><path id="Shape-6" data-name="Shape" class="cls-1" d="M153.32,45.46a8.53,8.53,0,0,1-.6,12,9,9,0,0,1-5.9,2.2c-2.8.8-10.6,2.9-18,5.4-3.9,1.3-7.3,2.5-7.5,2.6-2,.7-4,1.4-5.8,2.2a165.89,165.89,0,0,0-26.6,12.6,65.78,65.78,0,0,0-11.4,8.2,25.28,25.28,0,0,0-4.6,5.2c-1.7,2.7-2.3,6-.3,8.6,3.2,4.1,11,6.1,17.3,7.2a136.14,136.14,0,0,0,23,1.5c-2.2,6.3-4.2,12.8-5.9,19.6-24.5.8-44.8-3.5-53.5-18.9a27.29,27.29,0,0,1-2.7-20c3.1-12.2,12.8-20.2,22.2-26.1,10.2-6.2,21.8-10.5,34.2-14.2,1.4-.3,2.7-.8,4.2-1.1v-.1c5.3-1.3,10.9-2.5,16.9-3.6A250,250,0,0,1,153.32,45.46Z"/><path id="Shape-7" data-name="Shape" class="cls-1" d="M187,51.56c3.2,2.7,6.5,5.4,9.6,8.2-1,5.3-2.1,10.5-3.4,15.5-6-7.5-12.4-14.7-19-21.7C178.42,52.86,182.62,52.06,187,51.56Z"/><path id="Shape-8" data-name="Shape" class="cls-1" d="M196.62,59.76c5.7,4.9,11.6,10.5,17.6,16.8,4.2,4.4,8,8.7,11.5,12.9a175.39,175.39,0,0,1-17.1,6.6c-1.4-2.1-2.8-4.1-4.3-6.2-3.7-5.2-7.5-10.1-11.2-14.6a10.43,10.43,0,0,1,2.2-14.7A6.87,6.87,0,0,1,196.62,59.76Z"/><path id="Shape-9" data-name="Shape" class="cls-1" d="M111.42,52.46q6.15,9.9,13.5,20.1c1.2,1.7,2.4,3.3,3.6,4.9-1.3,2.8-2.7,5.6-4,8.3-1.5-2.6-3.1-5.2-4.6-7.9-4.7-8.3-8.9-16.4-12.8-24.3-.8-2.6-2.1-7.1-1.2-7.5S110,50.26,111.42,52.46Z"/><path id="Shape-10" data-name="Shape" class="cls-1" d="M136.72,87.46c6.2,7.6,12.8,14.7,19.5,21.6-5,.8-10.2,1.5-15.3,2.2-2.7-3.9-5.3-7.8-7.9-11.8C134.12,95.36,135.42,91.46,136.72,87.46Z"/><path id="Shape-11" data-name="Shape" class="cls-1" d="M225.82,89.36c.3.2,9.1,11.7,13,17.9a109,109,0,0,1,8.5,16.1,64.46,64.46,0,0,1,5.2,19.3c1.4,15.9-6.4,26.9-17.4,31.2-6.2,2.4-14.1,2.4-21.1.7-12.8-3.2-22.4-10.5-31.6-17.3,2.5-6.2,4.8-12.6,6.8-19.3,8.4,5.8,16.5,11.9,27.4,15.5,5,1.6,11.9,2.4,14.1-2.3,2-4.2,1.1-9.6-.8-14.9-3.2-9-9.2-22.8-21.1-40.2A25,25,0,0,1,225.82,89.36Z"/><path id="Shape-12" data-name="Shape" class="cls-1" d="M197.62,99.56a10.71,10.71,0,0,1-1.6,9.1c-9.1,3.9-16.5,6.8-21.8,8.8-3.4,1.3-5.6,2.1-6.8,2.5-5.3,1.8-10.8,3.5-16.3,5.2a239.14,239.14,0,0,1-25.2,5.6c1.1-6.3,2.3-12.3,3.7-18.3,3.8-.3,7.5-.7,11.2-1.1,0,0,7.4-.9,15.3-2.2C173.32,106.26,195.32,100.16,197.62,99.56Z"/><path id="Shape-13" data-name="Shape" class="cls-1" d="M167.52,120c2.7,2.6,5.6,5.1,8.4,7.5-2.4,5.8-5,11.5-7.8,16.9a220.89,220.89,0,0,1-17-19.3C156.62,123.46,162.12,121.76,167.52,120Z"/><path id="Shape-14" data-name="Shape" class="cls-1" d="M290.82,45a1.68,1.68,0,0,1,.42-1.23,1.71,1.71,0,0,1,1.18-.57h78a1.65,1.65,0,0,1,1.8,1.6v15.9a1.7,1.7,0,0,1-.43,1.24,1.65,1.65,0,0,1-1.17.56h-57.2a1,1,0,0,0-.74.22,1,1,0,0,0-.36.68v30.5c-.1.5.4,1,.9,1.1h48.2a1.65,1.65,0,0,1,1.8,1.6v15.9a1.66,1.66,0,0,1-.41,1.26,1.59,1.59,0,0,1-1.19.54h-48.2a1,1,0,0,0-.74.22,1,1,0,0,0-.36.68v31.6c-.1.5.4,1,.9,1.1h57.2a1.65,1.65,0,0,1,1.8,1.6v15.9a1.66,1.66,0,0,1-.41,1.26,1.59,1.59,0,0,1-1.19.54h-78a1.71,1.71,0,0,1-1.24-.42,1.66,1.66,0,0,1-.56-1.18Z"/><path id="Shape-15" data-name="Shape" class="cls-1" d="M461.52,167.26a3,3,0,0,1-2.9-1.8l-25-42.2h-.4L408,165.46a2.91,2.91,0,0,1-2.9,1.8h-19.7c-1.3,0-1.8-1.1-1.1-2.4l37.1-61.9-34.3-57.5c-.7-1.3-.2-2.4,1.1-2.4h19.6a3,3,0,0,1,2.9,1.8l22.5,37.6h.4l22.5-37.6a2.9,2.9,0,0,1,2.9-1.8h19.7c1.3,0,1.8,1.1,1.1,2.4l-34.4,57.6,37.1,61.9c.7,1.3.2,2.4-1.1,2.4Z"/><path id="Shape-16" data-name="Shape" class="cls-1" d="M499.32,45a1.68,1.68,0,0,1,.42-1.23,1.71,1.71,0,0,1,1.18-.57H519a1.71,1.71,0,0,1,1.8,1.6v102.1c-.1.5.4,1,.9,1.1h57.2a1.65,1.65,0,0,1,1.8,1.6v15.9a1.66,1.66,0,0,1-.41,1.26,1.59,1.59,0,0,1-1.19.54h-78a1.71,1.71,0,0,1-1.24-.42,1.66,1.66,0,0,1-.56-1.18Z"/><path id="Combined-Shape" class="cls-2" d="M631.05,87.7c-11.35,0-19.4,5.67-22.89,16.47-1.65,4.76-2.38,10.61-2.38,19.58s.73,14.64,2.38,19.4c3.47,10.79,11.52,16.47,22.87,16.47,10.25,0,16.29-3.85,21.41-11.9a1.66,1.66,0,0,1,2.38-.73l5.14,3.29a1.59,1.59,0,0,1,.82,1.07,1.57,1.57,0,0,1-.27,1.31c-6.4,10.62-15.73,16.47-29.46,16.47-16.1,0-28-8.41-32.57-22.69-1.65-5.49-2.75-12.26-2.75-22.69s1.1-17.39,2.75-22.88C603.05,86.6,615,78.18,631.05,78.18c13.77,0,23.06,5.88,29.46,16.47a1.59,1.59,0,0,1,.27,1.32A1.55,1.55,0,0,1,660,97l-5.12,3.3a1.67,1.67,0,0,1-1.36.17,1.62,1.62,0,0,1-1-.91C647.34,91.54,641.3,87.7,631.05,87.7Zm86.19-9.52c16.1,0,28,8.24,32.76,22.69,1.83,5.86,2.92,12.27,2.92,22.7,0,10.61-1.09,17-2.92,22.87-4.76,14.46-16.66,22.69-32.76,22.69-15.92,0-27.82-8.23-32.57-22.69-1.83-5.87-2.93-12.26-2.93-22.87,0-10.43,1.1-16.84,2.93-22.7C689.42,86.42,701.32,78.18,717.24,78.18Zm23.24,65.15c1.65-4.94,2.34-10.27,2.4-19.76,0-9.34-.73-14.64-2.38-19.58C737,93.56,728.61,87.7,717.26,87.7c-11.16,0-19.58,5.86-23.06,16.29-1.65,4.94-2.38,10.24-2.38,19.58,0,9.49.71,14.82,2.36,19.76,3.48,10.43,11.9,16.29,23.06,16.29C728.59,159.62,737,153.76,740.48,143.33ZM842.41,42.86a1.75,1.75,0,0,1,1.83,1.83V165.47a1.73,1.73,0,0,1-1.83,1.83h-6.23a1.72,1.72,0,0,1-1.83-1.83V154.86h-.18c-4.21,8.27-12.08,14.27-26.53,14.27q-23.07,0-29.65-20.86c-2.38-7.14-3.11-14.82-3.11-24.52,0-9.88.73-17.57,3.11-24.71q6.57-20.85,29.65-20.86c14.45,0,22.32,6,26.53,14.28h.18V44.69a1.73,1.73,0,0,1,1.83-1.83ZM832,144.25c1.64-4.76,2.37-11,2.37-20.5s-.73-15.92-2.37-20.68c-3.33-10.25-11.33-15.37-22.33-15.37-11.33,0-19,5.49-22.33,15.37-1.83,5.49-2.38,12.81-2.38,20.68,0,7.69.55,15,2.38,20.5,3.33,9.88,11,15.37,22.33,15.37C820.63,159.62,828.68,154.49,832,144.25ZM883.21,126c-.73,0-1.1.54-1.1,1.27,0,7.37.55,11.37,1.83,15.37,4,11.51,12.81,17,24.71,17,11.34,0,19.21-4.76,24.34-11.17a1.63,1.63,0,0,1,1.19-.79,1.68,1.68,0,0,1,1.37.43l4.21,3.82a1.64,1.64,0,0,1,.7,1.24,1.6,1.6,0,0,1-.52,1.32c-6.41,8.64-17.38,14.64-31.84,14.64-17,0-28.55-8-33.49-23-1.65-5.31-2.56-11.35-2.56-22.51,0-11,.91-17.39,2.56-22.7,4.76-14.69,16.65-22.69,32.39-22.69s27.82,8,32.55,22.69c1.83,5.49,2.57,11.17,2.57,23.25a1.84,1.84,0,0,1-.58,1.38,1.81,1.81,0,0,1-1.42.45Zm.55-22.15a40.58,40.58,0,0,0-1.65,12.63,1,1,0,0,0,.28.82,1,1,0,0,0,.82.28H931a1,1,0,0,0,.81-.28,1,1,0,0,0,.29-.82,40.58,40.58,0,0,0-1.65-12.63C927,93,918.53,87.33,907,87.33,895.65,87.33,887.24,93,883.76,103.8Z"/></g></g></svg>